<svg width="14" height="8" viewBox="0 0 14 8" fill="none" xmlns="http://www.w3.org/2000/svg">
<path d="M7.65125 7.24502L12.8304 2.05669C12.9163 1.97147 12.9845 1.87009 13.0311 1.75839C13.0776 1.64668 13.1016 1.52687 13.1016 1.40586C13.1016 1.28485 13.0776 1.16503 13.0311 1.05333C12.9845 0.941624 12.9163 0.84024 12.8304 0.755024C12.6587 0.584294 12.4263 0.488464 12.1842 0.488464C11.942 0.488464 11.7097 0.584294 11.5379 0.755024L6.95458 5.29252L2.41708 0.755024C2.24533 0.584294 2.013 0.488464 1.77083 0.488464C1.52866 0.488464 1.29633 0.584294 1.12458 0.755024C1.03797 0.83992 0.969061 0.941162 0.921856 1.05288C0.874651 1.1646 0.850086 1.28458 0.849583 1.40586C0.850086 1.52714 0.874651 1.64711 0.921856 1.75883C0.969061 1.87055 1.03797 1.97179 1.12458 2.05669L6.30375 7.24502C6.38959 7.33807 6.49377 7.41233 6.60972 7.46312C6.72568 7.51391 6.8509 7.54013 6.9775 7.54013C7.10409 7.54013 7.22931 7.51391 7.34527 7.46312C7.46123 7.41233 7.56541 7.33807 7.65125 7.24502Z" fill="#6F6F6F"/>
</svg>
