<svg width="18" height="12" viewBox="0 0 18 12" fill="none" xmlns="http://www.w3.org/2000/svg">
<path d="M9.94678 10.72L17.4801 3.17333C17.6051 3.04938 17.7043 2.90191 17.772 2.73943C17.8397 2.57695 17.8745 2.40268 17.8745 2.22666C17.8745 2.05065 17.8397 1.87637 17.772 1.71389C17.7043 1.55141 17.6051 1.40395 17.4801 1.28C17.2303 1.03166 16.8924 0.892273 16.5401 0.892273C16.1879 0.892273 15.8499 1.03166 15.6001 1.28L8.93345 7.88L2.33345 1.28C2.08363 1.03166 1.7457 0.892272 1.39345 0.892272C1.0412 0.892272 0.703268 1.03166 0.453451 1.28C0.327467 1.40348 0.22724 1.55074 0.158577 1.71324C0.0899143 1.87574 0.0541839 2.05025 0.0534515 2.22666C0.0541839 2.40307 0.0899142 2.57758 0.158577 2.74008C0.22724 2.90258 0.327467 3.04984 0.453451 3.17333L7.98678 10.72C8.11164 10.8553 8.26317 10.9633 8.43184 11.0372C8.60051 11.1111 8.78265 11.1492 8.96678 11.1492C9.15092 11.1492 9.33306 11.1111 9.50172 11.0372C9.67039 10.9633 9.82192 10.8553 9.94678 10.72Z" fill="#2C2A2A"/>
</svg>
