<svg width="6" height="11" viewBox="0 0 6 11" fill="none" xmlns="http://www.w3.org/2000/svg">
<path d="M0.344952 6.53247L4.58995 10.77C4.65967 10.8403 4.74263 10.8961 4.83402 10.9341C4.92541 10.9722 5.02344 10.9918 5.12245 10.9918C5.22146 10.9918 5.31949 10.9722 5.41089 10.9341C5.50228 10.8961 5.58523 10.8403 5.65495 10.77C5.79464 10.6295 5.87305 10.4394 5.87305 10.2412C5.87305 10.0431 5.79464 9.85299 5.65495 9.71247L1.94245 5.96247L5.65495 2.24997C5.79464 2.10945 5.87305 1.91936 5.87305 1.72122C5.87305 1.52308 5.79464 1.333 5.65495 1.19247C5.58549 1.12161 5.50266 1.06523 5.41125 1.02661C5.31985 0.987985 5.22168 0.967886 5.12245 0.967474C5.02322 0.967886 4.92506 0.987985 4.83365 1.02661C4.74225 1.06523 4.65941 1.12161 4.58995 1.19247L0.344952 5.42997C0.268824 5.5002 0.208067 5.58544 0.166512 5.68032C0.124956 5.77519 0.103503 5.87765 0.103503 5.98122C0.103503 6.0848 0.124956 6.18725 0.166511 6.28213C0.208067 6.377 0.268824 6.46224 0.344952 6.53247Z" fill="#6F6F6F"/>
</svg>
