<svg width="71" height="71" viewBox="0 0 71 71" fill="none" xmlns="http://www.w3.org/2000/svg">
<circle cx="35.5" cy="35.5" r="35.5" fill="#E44900"/>
<mask id="mask0_2842_535" style="mask-type:alpha" maskUnits="userSpaceOnUse" x="0" y="0" width="71" height="71">
<circle cx="35.5" cy="35.5" r="35.5" fill="#E44900"/>
</mask>
<g mask="url(#mask0_2842_535)">
<path d="M4.67636 37.7768V39.4545H6.35272V41.1321H11.3818V39.4545H13.0581V37.7768H14.7345V41.1321H16.4109V42.8098H18.0872V44.4874H23.1163V42.8098H24.7926V41.1321H26.469V42.8098H29.8217V41.1321H31.4981V39.4545H33.1744V37.7768H34.8508V39.4545H36.5272V41.1321H44.9089V39.4545H46.5853V36.0991H48.2617V37.7768H49.938V39.4545H53.2907V41.1321H56.6434V39.4545H59.9962V37.7768H61.6725V36.0991H63.3489V41.1321H61.6725V42.8098H59.9962V44.4874H51.6144V42.8098H49.938V41.1321H48.2617V42.8098H46.5853V44.4874H44.9089V46.1651H39.8799V44.4874H36.5272V42.8098H34.8508V41.1321H33.1744V42.8098H31.4981V44.4874H26.469V46.1651H23.1163V47.8428H18.0872V46.1651H16.4109V44.4874H13.0581V42.8098H9.70543V44.4874H4.67636V42.8098H3V37.7768H4.67636Z" fill="#E6E6E6"/>
<path d="M9.70541 36.0991H8.02905V37.7768H9.70541V36.0991Z" fill="#E6E6E6"/>
<path d="M19.7635 32.7441H18.0872V36.0995H19.7635V32.7441Z" fill="#E6E6E6"/>
<path d="M48.2616 31.0662H46.5852V32.7438H48.2616V31.0662Z" fill="#E6E6E6"/>
<path d="M49.9381 27.7108H48.2617V31.0661H49.9381V27.7108Z" fill="#E6E6E6"/>
<path d="M29.8217 27.7111H31.4981V31.0664H29.8217V29.3888H28.1454V26.0334H29.8217V27.7111Z" fill="#E6E6E6"/>
<path d="M8.02911 36.099V37.7766H9.70546V36.099H8.02911V32.7437H9.70546V31.066H18.0873V36.099H19.7636V31.066H21.44V29.3883H23.1163V27.7107H24.7927V26.033H28.1454V29.3883H29.8218V31.066H31.4981V27.7107H29.8218V24.3553H31.4981V22.6777H33.1745V21H43.2326V22.6777H46.5853V24.3553H48.2617V26.033H49.938V27.7107H48.2617V31.066H46.5853V32.7437H48.2617V31.066H49.938V29.3883H51.6144V27.7107H58.3198V29.3883H59.9962V31.066H61.6725V32.7437H63.3489V36.099H61.6725V37.7766H59.9962V39.4543H56.6435V41.132H53.2908V39.4543H49.938V37.7766H48.2617V36.099H46.5853V39.4543H44.909V41.132H36.5272V39.4543H34.8508V37.7766H33.1745V39.4543H31.4981V41.132H29.8218V42.8096H26.469V41.132H24.7927V42.8096H23.1163V44.4873H18.0873V42.8096H16.4109V41.132H14.7345V37.7766H13.0582V39.4543H11.3818V41.132H6.35275V39.4543H4.67639V36.099H8.02911Z" fill="white"/>
</g>
</svg>
