<svg width="346" height="352" viewBox="0 0 346 352" fill="none" xmlns="http://www.w3.org/2000/svg">
<g clip-path="url(#clip0_2743_356)">
<rect width="346" height="352" fill="white"/>
<g filter="url(#filter0_d_2743_356)">
<path d="M0 6C0 2.68629 2.68629 0 6 0H522C525.314 0 528 2.68629 528 6V463C528 466.314 525.314 469 522 469H5.99999C2.68629 469 0 466.314 0 463V6Z" fill="white"/>
</g>
<rect y="127" width="346" height="377" rx="23" fill="#E44900"/>
<path d="M46.44 192.305C48.9133 192.305 51.0483 192.923 52.845 194.16C54.665 195.373 56.0533 197.053 57.01 199.2H52.11C50.6867 197.333 48.7967 196.4 46.44 196.4C44.3167 196.4 42.5433 197.158 41.12 198.675C39.72 200.192 39.02 202.093 39.02 204.38C39.02 206.667 39.72 208.568 41.12 210.085C42.5433 211.602 44.3167 212.36 46.44 212.36C48.82 212.36 50.71 211.427 52.11 209.56H57.01C56.0533 211.707 54.665 213.398 52.845 214.635C51.0483 215.848 48.9133 216.455 46.44 216.455C43.01 216.455 40.1517 215.312 37.865 213.025C35.5783 210.715 34.435 207.833 34.435 204.38C34.435 200.927 35.5783 198.057 37.865 195.77C40.1517 193.46 43.01 192.305 46.44 192.305ZM67.7438 216.455C65.5738 216.455 63.8121 215.825 62.4588 214.565C61.1288 213.282 60.4638 211.555 60.4638 209.385V199.375H64.8738V208.58C64.8738 209.793 65.1888 210.738 65.8188 211.415C66.4721 212.068 67.4171 212.395 68.6538 212.395C69.7738 212.395 70.7188 211.975 71.4888 211.135C72.2821 210.295 72.6788 209.187 72.6788 207.81V199.375H77.0888V216H72.6788V214.74C71.6055 215.883 69.9605 216.455 67.7438 216.455ZM82.1411 199.375H86.5511V201.09C86.9244 200.53 87.5078 200.087 88.3011 199.76C89.0944 199.41 89.9694 199.235 90.9261 199.235H92.9561V203.435H90.8911C89.5144 203.435 88.4411 203.843 87.6711 204.66C86.9244 205.477 86.5511 206.562 86.5511 207.915V216H82.1411V199.375ZM96.7358 199.375H101.146V201.09C101.519 200.53 102.102 200.087 102.896 199.76C103.689 199.41 104.564 199.235 105.521 199.235H107.551V203.435H105.486C104.109 203.435 103.036 203.843 102.266 204.66C101.519 205.477 101.146 206.562 101.146 207.915V216H96.7358V199.375ZM111.191 196.68V191.885H116.021V196.68H111.191ZM111.401 199.375H115.811V216H111.401V199.375ZM128.845 212.395C130.548 212.395 131.785 211.777 132.555 210.54H137.035C136.428 212.36 135.378 213.807 133.885 214.88C132.415 215.93 130.735 216.455 128.845 216.455C126.325 216.455 124.213 215.627 122.51 213.97C120.83 212.29 119.99 210.19 119.99 207.67C119.99 205.15 120.83 203.062 122.51 201.405C124.213 199.748 126.325 198.92 128.845 198.92C130.735 198.92 132.415 199.457 133.885 200.53C135.378 201.58 136.428 203.015 137.035 204.835H132.555C131.785 203.598 130.548 202.98 128.845 202.98C127.515 202.98 126.442 203.412 125.625 204.275C124.808 205.138 124.4 206.27 124.4 207.67C124.4 209.07 124.808 210.213 125.625 211.1C126.442 211.963 127.515 212.395 128.845 212.395ZM147.964 216.455C145.794 216.455 144.032 215.825 142.679 214.565C141.349 213.282 140.684 211.555 140.684 209.385V199.375H145.094V208.58C145.094 209.793 145.409 210.738 146.039 211.415C146.692 212.068 147.637 212.395 148.874 212.395C149.994 212.395 150.939 211.975 151.709 211.135C152.502 210.295 152.899 209.187 152.899 207.81V199.375H157.309V216H152.899V214.74C151.825 215.883 150.18 216.455 147.964 216.455ZM162.361 192.585H166.771V216H162.361V192.585ZM178.759 216.455C176.589 216.455 174.828 215.825 173.474 214.565C172.144 213.282 171.479 211.555 171.479 209.385V199.375H175.889V208.58C175.889 209.793 176.204 210.738 176.834 211.415C177.488 212.068 178.433 212.395 179.669 212.395C180.789 212.395 181.734 211.975 182.504 211.135C183.298 210.295 183.694 209.187 183.694 207.81V199.375H188.104V216H183.694V214.74C182.621 215.883 180.976 216.455 178.759 216.455ZM214.227 198.92C216.373 198.92 218.123 199.562 219.477 200.845C220.83 202.128 221.507 203.855 221.507 206.025V216H217.097V206.83C217.097 204.263 215.883 202.98 213.457 202.98C212.313 202.98 211.368 203.412 210.622 204.275C209.898 205.115 209.537 206.223 209.537 207.6V216H205.127V206.83C205.127 204.263 203.913 202.98 201.487 202.98C200.343 202.98 199.398 203.412 198.652 204.275C197.928 205.115 197.567 206.223 197.567 207.6V216H193.157V199.375H197.567V200.635C198.71 199.492 200.297 198.92 202.327 198.92C205.103 198.92 207.087 199.76 208.277 201.44C209.63 199.76 211.613 198.92 214.227 198.92ZM241.046 216L231.246 192.76H236.111L243.356 209.91L250.636 192.76H255.361L245.561 216H241.046ZM257.924 196.68V191.885H262.754V196.68H257.924ZM258.134 199.375H262.544V216H258.134V199.375ZM269.138 195.63H273.548V199.375H278.588V203.225H273.548V210.085C273.548 211.462 274.19 212.15 275.473 212.15H278.588V216H275.438C273.408 216 271.845 215.533 270.748 214.6C269.675 213.643 269.138 212.372 269.138 210.785V203.225H266.093V199.375H269.138V195.63ZM289.607 198.92C292.15 198.92 294.18 199.515 295.697 200.705C297.237 201.895 298.007 203.552 298.007 205.675V216H293.597V214.74C292.453 215.883 290.657 216.455 288.207 216.455C286.153 216.455 284.543 215.965 283.377 214.985C282.233 214.005 281.662 212.617 281.662 210.82C281.662 208.907 282.397 207.553 283.867 206.76C285.36 205.943 287.238 205.535 289.502 205.535H293.597C293.597 204.625 293.235 203.948 292.512 203.505C291.788 203.062 290.855 202.84 289.712 202.84C287.682 202.84 286.387 203.505 285.827 204.835H281.277C281.72 202.898 282.712 201.428 284.252 200.425C285.815 199.422 287.6 198.92 289.607 198.92ZM293.597 209.525V208.825H289.502C287.215 208.825 286.072 209.502 286.072 210.855C286.072 211.462 286.328 211.963 286.842 212.36C287.378 212.733 288.125 212.92 289.082 212.92C290.342 212.92 291.403 212.628 292.267 212.045C293.153 211.438 293.597 210.598 293.597 209.525ZM314.217 210.96H318.977C318.323 212.64 317.25 213.982 315.757 214.985C314.263 215.965 312.607 216.455 310.787 216.455C308.197 216.455 306.05 215.627 304.347 213.97C302.643 212.29 301.792 210.19 301.792 207.67C301.792 205.173 302.62 203.097 304.277 201.44C305.933 199.76 308.045 198.92 310.612 198.92C313.155 198.92 315.232 199.748 316.842 201.405C318.452 203.062 319.257 205.127 319.257 207.6C319.257 208.37 319.233 208.883 319.187 209.14H306.377C306.61 210.143 307.123 210.937 307.917 211.52C308.733 212.103 309.69 212.395 310.787 212.395C312.303 212.395 313.447 211.917 314.217 210.96ZM306.482 205.85H314.567C314.427 204.893 313.995 204.135 313.272 203.575C312.548 202.992 311.662 202.7 310.612 202.7C309.585 202.7 308.675 202.992 307.882 203.575C307.088 204.158 306.622 204.917 306.482 205.85Z" fill="white"/>
<path d="M43.104 170.144C41.824 170.144 40.64 169.936 39.552 169.52C38.48 169.088 37.544 168.488 36.744 167.72C35.96 166.952 35.344 166.048 34.896 165.008C34.464 163.968 34.248 162.832 34.248 161.6C34.248 160.368 34.464 159.232 34.896 158.192C35.344 157.152 35.968 156.248 36.768 155.48C37.568 154.712 38.504 154.12 39.576 153.704C40.664 153.272 41.848 153.056 43.128 153.056C44.408 153.056 45.576 153.256 46.632 153.656C47.704 154.056 48.616 154.664 49.368 155.48L48.264 156.608C47.56 155.904 46.784 155.4 45.936 155.096C45.088 154.792 44.176 154.64 43.2 154.64C42.16 154.64 41.2 154.816 40.32 155.168C39.456 155.504 38.696 155.992 38.04 156.632C37.4 157.256 36.896 157.992 36.528 158.84C36.176 159.672 36 160.592 36 161.6C36 162.592 36.176 163.512 36.528 164.36C36.896 165.208 37.4 165.952 38.04 166.592C38.696 167.216 39.456 167.704 40.32 168.056C41.2 168.392 42.152 168.56 43.176 168.56C44.136 168.56 45.04 168.416 45.888 168.128C46.752 167.84 47.544 167.352 48.264 166.664L49.272 168.008C48.472 168.712 47.536 169.248 46.464 169.616C45.392 169.968 44.272 170.144 43.104 170.144ZM47.568 167.792V161.6H49.272V168.008L47.568 167.792ZM51.6105 170L59.2905 153.2H61.0425L68.7225 170H66.8505L59.7945 154.232H60.5145L53.4585 170H51.6105ZM54.6345 165.512L55.1625 164.072H64.9305L65.4585 165.512H54.6345ZM78.6353 170.144C77.3553 170.144 76.1713 169.936 75.0833 169.52C74.0113 169.088 73.0753 168.488 72.2753 167.72C71.4913 166.952 70.8753 166.048 70.4273 165.008C69.9953 163.968 69.7793 162.832 69.7793 161.6C69.7793 160.368 69.9953 159.232 70.4273 158.192C70.8753 157.152 71.4993 156.248 72.2993 155.48C73.0993 154.712 74.0353 154.12 75.1073 153.704C76.1953 153.272 77.3793 153.056 78.6593 153.056C79.9393 153.056 81.1073 153.256 82.1633 153.656C83.2353 154.056 84.1473 154.664 84.8993 155.48L83.7953 156.608C83.0913 155.904 82.3153 155.4 81.4673 155.096C80.6193 154.792 79.7073 154.64 78.7313 154.64C77.6913 154.64 76.7313 154.816 75.8513 155.168C74.9873 155.504 74.2273 155.992 73.5713 156.632C72.9313 157.256 72.4273 157.992 72.0592 158.84C71.7072 159.672 71.5312 160.592 71.5312 161.6C71.5312 162.592 71.7072 163.512 72.0592 164.36C72.4273 165.208 72.9313 165.952 73.5713 166.592C74.2273 167.216 74.9873 167.704 75.8513 168.056C76.7313 168.392 77.6833 168.56 78.7073 168.56C79.6673 168.56 80.5713 168.416 81.4193 168.128C82.2833 167.84 83.0753 167.352 83.7953 166.664L84.8033 168.008C84.0033 168.712 83.0673 169.248 81.9953 169.616C80.9233 169.968 79.8033 170.144 78.6353 170.144ZM83.0993 167.792V161.6H84.8033V168.008L83.0993 167.792ZM87.1418 170L94.8218 153.2H96.5738L104.254 170H102.382L95.3258 154.232H96.0458L88.9898 170H87.1418ZM90.1658 165.512L90.6938 164.072H100.462L100.99 165.512H90.1658ZM105.385 164.24V162.752H111.673V164.24H105.385ZM121.096 174.776C119.944 174.776 118.84 174.608 117.784 174.272C116.728 173.936 115.872 173.456 115.216 172.832L116.08 171.536C116.672 172.064 117.4 172.48 118.264 172.784C119.144 173.104 120.072 173.264 121.048 173.264C122.648 173.264 123.824 172.888 124.576 172.136C125.328 171.4 125.704 170.248 125.704 168.68V165.536L125.944 163.376L125.776 161.216V157.4H127.408V168.464C127.408 170.64 126.872 172.232 125.8 173.24C124.744 174.264 123.176 174.776 121.096 174.776ZM120.784 169.52C119.584 169.52 118.504 169.264 117.544 168.752C116.584 168.224 115.824 167.496 115.264 166.568C114.72 165.64 114.448 164.576 114.448 163.376C114.448 162.176 114.72 161.12 115.264 160.208C115.824 159.28 116.584 158.56 117.544 158.048C118.504 157.536 119.584 157.28 120.784 157.28C121.904 157.28 122.912 157.512 123.808 157.976C124.704 158.44 125.416 159.128 125.944 160.04C126.472 160.952 126.736 162.064 126.736 163.376C126.736 164.688 126.472 165.8 125.944 166.712C125.416 167.624 124.704 168.32 123.808 168.8C122.912 169.28 121.904 169.52 120.784 169.52ZM120.952 168.008C121.88 168.008 122.704 167.816 123.424 167.432C124.144 167.032 124.712 166.488 125.128 165.8C125.544 165.096 125.752 164.288 125.752 163.376C125.752 162.464 125.544 161.664 125.128 160.976C124.712 160.288 124.144 159.752 123.424 159.368C122.704 158.968 121.88 158.768 120.952 158.768C120.04 158.768 119.216 158.968 118.48 159.368C117.76 159.752 117.192 160.288 116.776 160.976C116.376 161.664 116.176 162.464 116.176 163.376C116.176 164.288 116.376 165.096 116.776 165.8C117.192 166.488 117.76 167.032 118.48 167.432C119.216 167.816 120.04 168.008 120.952 168.008ZM137.285 170.12C136.069 170.12 134.973 169.848 133.997 169.304C133.037 168.744 132.277 167.984 131.717 167.024C131.157 166.048 130.877 164.936 130.877 163.688C130.877 162.424 131.157 161.312 131.717 160.352C132.277 159.392 133.037 158.64 133.997 158.096C134.957 157.552 136.053 157.28 137.285 157.28C138.533 157.28 139.637 157.552 140.597 158.096C141.573 158.64 142.333 159.392 142.877 160.352C143.437 161.312 143.717 162.424 143.717 163.688C143.717 164.936 143.437 166.048 142.877 167.024C142.333 167.984 141.573 168.744 140.597 169.304C139.621 169.848 138.517 170.12 137.285 170.12ZM137.285 168.608C138.197 168.608 139.005 168.408 139.709 168.008C140.413 167.592 140.965 167.016 141.365 166.28C141.781 165.528 141.989 164.664 141.989 163.688C141.989 162.696 141.781 161.832 141.365 161.096C140.965 160.36 140.413 159.792 139.709 159.392C139.005 158.976 138.205 158.768 137.309 158.768C136.413 158.768 135.613 158.976 134.909 159.392C134.205 159.792 133.645 160.36 133.229 161.096C132.813 161.832 132.605 162.696 132.605 163.688C132.605 164.664 132.813 165.528 133.229 166.28C133.645 167.016 134.205 167.592 134.909 168.008C135.613 168.408 136.405 168.608 137.285 168.608ZM152.332 170.12C151.116 170.12 150.02 169.848 149.044 169.304C148.084 168.744 147.324 167.984 146.764 167.024C146.204 166.048 145.924 164.936 145.924 163.688C145.924 162.424 146.204 161.312 146.764 160.352C147.324 159.392 148.084 158.64 149.044 158.096C150.004 157.552 151.1 157.28 152.332 157.28C153.58 157.28 154.684 157.552 155.644 158.096C156.62 158.64 157.38 159.392 157.924 160.352C158.484 161.312 158.764 162.424 158.764 163.688C158.764 164.936 158.484 166.048 157.924 167.024C157.38 167.984 156.62 168.744 155.644 169.304C154.668 169.848 153.564 170.12 152.332 170.12ZM152.332 168.608C153.244 168.608 154.052 168.408 154.756 168.008C155.46 167.592 156.012 167.016 156.412 166.28C156.828 165.528 157.036 164.664 157.036 163.688C157.036 162.696 156.828 161.832 156.412 161.096C156.012 160.36 155.46 159.792 154.756 159.392C154.052 158.976 153.252 158.768 152.356 158.768C151.46 158.768 150.66 158.976 149.956 159.392C149.252 159.792 148.692 160.36 148.276 161.096C147.86 161.832 147.652 162.696 147.652 163.688C147.652 164.664 147.86 165.528 148.276 166.28C148.692 167.016 149.252 167.592 149.956 168.008C150.66 168.408 151.452 168.608 152.332 168.608ZM165.627 170.12C164.587 170.12 163.603 169.976 162.675 169.688C161.747 169.384 161.019 169.008 160.491 168.56L161.259 167.216C161.771 167.6 162.427 167.936 163.227 168.224C164.027 168.496 164.867 168.632 165.747 168.632C166.947 168.632 167.811 168.448 168.339 168.08C168.867 167.696 169.131 167.192 169.131 166.568C169.131 166.104 168.979 165.744 168.675 165.488C168.387 165.216 168.003 165.016 167.523 164.888C167.043 164.744 166.507 164.624 165.915 164.528C165.323 164.432 164.731 164.32 164.139 164.192C163.563 164.064 163.035 163.88 162.555 163.64C162.075 163.384 161.683 163.04 161.379 162.608C161.091 162.176 160.947 161.6 160.947 160.88C160.947 160.192 161.139 159.576 161.523 159.032C161.907 158.488 162.467 158.064 163.203 157.76C163.955 157.44 164.867 157.28 165.939 157.28C166.755 157.28 167.571 157.392 168.387 157.616C169.203 157.824 169.875 158.104 170.403 158.456L169.659 159.824C169.099 159.44 168.499 159.168 167.859 159.008C167.219 158.832 166.579 158.744 165.939 158.744C164.803 158.744 163.963 158.944 163.419 159.344C162.891 159.728 162.627 160.224 162.627 160.832C162.627 161.312 162.771 161.688 163.059 161.96C163.363 162.232 163.755 162.448 164.235 162.608C164.731 162.752 165.267 162.872 165.843 162.968C166.435 163.064 167.019 163.184 167.595 163.328C168.187 163.456 168.723 163.64 169.203 163.88C169.699 164.104 170.091 164.432 170.379 164.864C170.683 165.28 170.835 165.832 170.835 166.52C170.835 167.256 170.627 167.896 170.211 168.44C169.811 168.968 169.219 169.384 168.435 169.688C167.667 169.976 166.731 170.12 165.627 170.12ZM179.314 170.12C178.002 170.12 176.85 169.848 175.858 169.304C174.866 168.744 174.09 167.984 173.53 167.024C172.97 166.048 172.69 164.936 172.69 163.688C172.69 162.44 172.954 161.336 173.482 160.376C174.026 159.416 174.762 158.664 175.69 158.12C176.634 157.56 177.69 157.28 178.858 157.28C180.042 157.28 181.09 157.552 182.002 158.096C182.93 158.624 183.658 159.376 184.186 160.352C184.714 161.312 184.978 162.424 184.978 163.688C184.978 163.768 184.97 163.856 184.954 163.952C184.954 164.032 184.954 164.12 184.954 164.216H173.986V162.944H184.042L183.37 163.448C183.37 162.536 183.17 161.728 182.77 161.024C182.386 160.304 181.858 159.744 181.186 159.344C180.514 158.944 179.738 158.744 178.858 158.744C177.994 158.744 177.218 158.944 176.53 159.344C175.842 159.744 175.306 160.304 174.922 161.024C174.538 161.744 174.346 162.568 174.346 163.496V163.76C174.346 164.72 174.554 165.568 174.97 166.304C175.402 167.024 175.994 167.592 176.746 168.008C177.514 168.408 178.386 168.608 179.362 168.608C180.13 168.608 180.842 168.472 181.498 168.2C182.17 167.928 182.746 167.512 183.226 166.952L184.186 168.056C183.626 168.728 182.922 169.24 182.074 169.592C181.242 169.944 180.322 170.12 179.314 170.12Z" fill="white"/>
<circle cx="69" cy="59" r="36" fill="#E44900"/>
<mask id="mask0_2743_356" style="mask-type:alpha" maskUnits="userSpaceOnUse" x="33" y="23" width="72" height="72">
<circle cx="69" cy="59" r="36" fill="#E44900"/>
</mask>
<g mask="url(#mask0_2743_356)">
<path fill-rule="evenodd" clip-rule="evenodd" d="M65.1707 193.68H72.8326V189.907H80.4945V186.138H84.3259V201.229H80.4945V204.999H103.482V201.227H95.8192V197.454H91.9886V167.272H95.8192V163.499H99.6505V167.272H103.482V129.545H99.6505V125.772H95.8192V121.997H91.9886V118.224H88.1556V114.452H84.3243V110.681H80.4929V99.3632H76.6624V91.8174H72.831V65.4089H76.6624V61.636H80.4929V57.8632H84.3243V50.3174H80.4929V38.9996H76.6624V35.2267H72.831V31.4539H65.1691V35.2267H61.3377V38.9996H57.5064V50.3174H53.6775V57.8632H57.508V61.636H61.3394V65.4089H65.1707V91.8174H61.3394V99.3632H57.508V110.681H53.6775V114.454H49.8461V118.226H46.0147V121.997H42.1842V125.77H38.3529V129.543H34.5215V167.27H38.3529V163.497H42.1842V167.27H46.0147V197.451H42.1842V201.224H34.5215V204.999H57.508V201.227H53.6775V186.138H57.508V189.911H65.1707V193.68Z" fill="white"/>
<path d="M72.8318 57.8633H65.1699V61.6362H72.8318V57.8633Z" fill="#FFA831"/>
<path d="M65.1712 42.7715H61.3398V46.5444H65.1712V42.7715Z" fill="#333333"/>
<path fill-rule="evenodd" clip-rule="evenodd" d="M68.9986 46.5452H72.83V50.3172H76.6613V54.0901H80.4919V57.863H57.5078V54.0901H61.3392V50.3172H65.1705V46.5452H68.9986Z" fill="#FDBD38"/>
<path d="M76.6634 42.7715H72.832V46.5444H76.6634V42.7715Z" fill="#333333"/>
</g>
</g>
<defs>
<filter id="filter0_d_2743_356" x="-48" y="0" width="624" height="571" filterUnits="userSpaceOnUse" color-interpolation-filters="sRGB">
<feFlood flood-opacity="0" result="BackgroundImageFix"/>
<feColorMatrix in="SourceAlpha" type="matrix" values="0 0 0 0 0 0 0 0 0 0 0 0 0 0 0 0 0 0 127 0" result="hardAlpha"/>
<feOffset dy="54"/>
<feGaussianBlur stdDeviation="24"/>
<feColorMatrix type="matrix" values="0 0 0 0 0 0 0 0 0 0 0 0 0 0 0 0 0 0 0.04 0"/>
<feBlend mode="normal" in2="BackgroundImageFix" result="effect1_dropShadow_2743_356"/>
<feBlend mode="normal" in="SourceGraphic" in2="effect1_dropShadow_2743_356" result="shape"/>
</filter>
<clipPath id="clip0_2743_356">
<rect width="346" height="352" fill="white"/>
</clipPath>
</defs>
</svg>
