<svg width="118" height="118" viewBox="0 0 118 118" fill="none" xmlns="http://www.w3.org/2000/svg">
<rect width="118" height="118" fill="#E5E5E5"/>
<g clip-path="url(#clip0_2101_322)">
<rect width="1920" height="2180" transform="translate(-449 -269)" fill="white"/>
<rect x="-634" y="-269" width="2227" height="2237" fill="white"/>
<rect x="-90.5" y="-59.5" width="1202" height="1726" rx="34.5" fill="#F9F9F9" stroke="#E0E0E0" stroke-width="3"/>
<circle cx="59" cy="59" r="59" fill="#E44900"/>
<mask id="mask0_2101_322" style="mask-type:alpha" maskUnits="userSpaceOnUse" x="0" y="0" width="118" height="118">
<circle cx="59" cy="59" r="59" fill="#E44900"/>
</mask>
<g mask="url(#mask0_2101_322)">
<path fill-rule="evenodd" clip-rule="evenodd" d="M52.7219 279.726H65.2789V273.543H77.8359V267.366H84.1151V292.098H77.8359V298.276H115.51V292.094H102.951V285.91H96.6735V236.445H102.951V230.262H109.23V236.445H115.51V174.615H109.23V168.431H102.951V162.245H96.6735V156.062H90.3916V149.88H84.1124V143.699H77.8332V125.151H71.5554V112.784H65.2762V69.5035H71.5554V63.3202H77.8332V57.1369H84.1124V44.7702H77.8332V26.2216H71.5554V20.0382H65.2762V13.8549H52.7192V20.0382H46.44V26.2216H40.1609V44.7702H33.8858V57.1369H40.1636V63.3202H46.4428V69.5035H52.7219V112.784H46.4428V125.151H40.1636V143.699H33.8858V149.883H27.6066V156.065H21.3274V162.245H15.0496V168.429H8.77039V174.612H2.49121V236.443H8.77039V230.259H15.0496V236.443H21.3274V285.906H15.0496V292.09H2.49121V298.276H40.1636V292.094H33.8858V267.366H40.1636V273.548H52.7219V279.726Z" fill="white"/>
<path d="M65.2787 57.137H52.7217V63.3203H65.2787V57.137Z" fill="#FFA831"/>
<path d="M52.7216 32.4035H46.4424V38.5869H52.7216V32.4035Z" fill="#333333"/>
<path fill-rule="evenodd" clip-rule="evenodd" d="M58.9962 38.588H65.2753V44.77H71.5545V50.9534H77.8323V57.1367H40.1641V50.9534H46.4432V44.77H52.7224V38.588H58.9962Z" fill="#FDBD38"/>
<path d="M71.5585 32.4035H65.2793V38.5869H71.5585V32.4035Z" fill="#333333"/>
</g>
</g>
<defs>
<clipPath id="clip0_2101_322">
<rect width="1920" height="2180" fill="white" transform="translate(-449 -269)"/>
</clipPath>
</defs>
</svg>
