<svg width="71" height="71" viewBox="0 0 71 71" fill="none" xmlns="http://www.w3.org/2000/svg">
<circle cx="35.5" cy="35.5" r="35.5" fill="#E44900"/>
<mask id="mask0_2842_534" style="mask-type:alpha" maskUnits="userSpaceOnUse" x="0" y="0" width="71" height="71">
<circle cx="35.5" cy="35.5" r="35.5" fill="#E44900"/>
</mask>
<g mask="url(#mask0_2842_534)">
<path fill-rule="evenodd" clip-rule="evenodd" d="M31.0668 191.694H39.6936V187.446H48.3205V183.202H52.6344V200.193H48.3205V204.438H74.2029V200.191H65.5751V195.943H61.2621V161.959H65.5751V157.711H69.889V161.959H74.2029V119.481H69.889V115.233H65.5751V110.983H61.2621V106.735H56.9464V102.488H52.6325V98.2415H48.3186V85.4983H44.0056V77.0022H39.6917V47.2678H44.0056V43.0197H48.3186V38.7717H52.6325V30.2756H48.3186V17.5324H44.0056V13.2844H39.6917V9.03638H31.0649V13.2844H26.751V17.5324H22.4371V30.2756H18.126V38.7717H22.439V43.0197H26.7529V47.2678H31.0668V77.0022H26.7529V85.4983H22.439V98.2415H18.126V102.49H13.8121V106.737H9.49823V110.983H5.18528V115.231H0.871388V119.479H-3.4425V161.957H0.871388V157.709H5.18528V161.957H9.49823V195.94H5.18528V200.188H-3.4425V204.438H22.439V200.191H18.126V183.202H22.439V187.449H31.0668V191.694Z" fill="white"/>
<path d="M39.6936 38.7719H31.0668V43.0199H39.6936V38.7719Z" fill="#FFA831"/>
<path d="M31.0667 21.7795H26.7528V26.0276H31.0667V21.7795Z" fill="#333333"/>
<path fill-rule="evenodd" clip-rule="evenodd" d="M35.3771 26.0284H39.691V30.2756H44.0049V34.5236H48.3179V38.7716H22.4392V34.5236H26.7531V30.2756H31.067V26.0284H35.3771Z" fill="#FDBD38"/>
<path d="M44.0076 21.7795H39.6937V26.0276H44.0076V21.7795Z" fill="#333333"/>
</g>
</svg>
