<svg width="275" height="692" viewBox="0 0 275 692" fill="none" xmlns="http://www.w3.org/2000/svg">
<path fill-rule="evenodd" clip-rule="evenodd" d="M122.136 646.463H152.668V631.428H183.2V616.41H198.468V676.545H183.2V691.567H274.803V676.535H244.268V661.501H229.003V541.226H244.268V526.192H259.536V541.226H274.803V390.886H259.536V375.851H244.268V360.81H229.003V345.775H213.729V330.744H198.461V315.716H183.193V270.615H167.929V240.545H152.661V135.309H167.929V120.274H183.193V105.24H198.461V75.1702H183.193V30.0694H167.929V15.0347H152.661V0H122.129V15.0347H106.861V30.0694H91.5934V75.1702H76.3356V105.24H91.6V120.274H106.868V135.309H122.136V240.545H106.868V270.615H91.6V315.716H76.3356V330.75H61.0678V345.782H45.8V360.81H30.5355V375.845H15.2678V390.879H0V541.22H15.2678V526.185H30.5355V541.22H45.8V661.491H30.5355V676.526H0V691.567H91.6V676.535H76.3356V616.41H91.6V631.441H122.136V646.463Z" fill="white"/>
<path fill-rule="evenodd" clip-rule="evenodd" d="M45.8 601.362V661.494H30.5322V676.529H0V691.564H91.6V676.529H76.3356V586.327H61.0678V571.293H45.8V601.362Z" fill="#FFA831"/>
<path fill-rule="evenodd" clip-rule="evenodd" d="M30.5322 375.851H45.8V360.816H30.5322V375.851H15.2678V390.882H0V541.223H15.2678V390.882H30.5322V375.851Z" fill="#E6E6E6"/>
<path d="M152.668 105.24H122.135V120.275H152.668V105.24Z" fill="#FFA831"/>
<path d="M122.135 45.1008H106.867V60.1355H122.135V45.1008Z" fill="#333333"/>
<path fill-rule="evenodd" clip-rule="evenodd" d="M229 601.362V661.494H244.268V676.529H274.8V691.564H183.2V676.529H198.468V586.327H213.735V571.293H229V601.362Z" fill="#FFA831"/>
<path fill-rule="evenodd" clip-rule="evenodd" d="M244.268 375.851H229V360.816H244.268V375.851H259.536V390.882H274.8V541.223H259.536V390.882H244.268V375.851Z" fill="#E6E6E6"/>
<path fill-rule="evenodd" clip-rule="evenodd" d="M137.39 60.1385H152.658V75.1699H167.926V90.2046H183.19V105.239H91.6003V90.2046H106.868V75.1699H122.136V60.1385H137.39Z" fill="#FDBD38"/>
<path d="M167.936 45.1008H152.668V60.1355H167.936V45.1008Z" fill="#333333"/>
</svg>
