<svg width="118" height="118" viewBox="0 0 118 118" fill="none" xmlns="http://www.w3.org/2000/svg">
<path d="M118 59C118 91.5848 91.5848 118 59 118C26.4152 118 0 91.5848 0 59C0 26.4152 26.4152 0 59 0C91.5848 0 118 26.4152 118 59Z" fill="#E44900"/>
<mask id="mask0_2643_384" style="mask-type:alpha" maskUnits="userSpaceOnUse" x="0" y="0" width="118" height="118">
<path d="M118 59C118 91.5848 91.5848 118 59 118C26.4152 118 0 91.5848 0 59C0 26.4152 26.4152 0 59 0C91.5848 0 118 26.4152 118 59Z" fill="#E44900"/>
</mask>
<g mask="url(#mask0_2643_384)">
<path fill-rule="evenodd" clip-rule="evenodd" d="M52.721 279.726H65.278V273.543H77.835V267.366H84.1141V292.098H77.835V298.276H115.509V292.094H102.95V285.91H96.6725V236.445H102.95V230.262H109.23V236.445H115.509V174.615H109.23V168.431H102.95V162.245H96.6725V156.062H90.3906V149.88H84.1114V143.699H77.8323V125.151H71.5544V112.784H65.2752V69.5035H71.5544V63.3202H77.8323V57.1368H84.1114V44.7702H77.8323V26.2216H71.5544V20.0382H65.2752V13.8549H52.7182V20.0382H46.4391V26.2216H40.1599V44.7702H33.8848V57.1368H40.1626V63.3202H46.4418V69.5035H52.721V112.784H46.4418V125.151H40.1626V143.699H33.8848V149.883H27.6056V156.065H21.3264V162.245H15.0486V168.429H8.76942V174.612H2.49023V236.443H8.76942V230.259H15.0486V236.443H21.3264V285.906H15.0486V292.09H2.49023V298.276H40.1626V292.094H33.8848V267.366H40.1626V273.548H52.721V279.726Z" fill="white"/>
<path d="M65.2777 57.137H52.7207V63.3203H65.2777V57.137Z" fill="#FFA831"/>
<path d="M52.7206 32.4035H46.4414V38.5869H52.7206V32.4035Z" fill="#333333"/>
<path fill-rule="evenodd" clip-rule="evenodd" d="M58.9962 38.588H65.2753V44.77H71.5545V50.9534H77.8323V57.1367H40.1641V50.9534H46.4432V44.77H52.7224V38.588H58.9962Z" fill="#FDBD38"/>
<path d="M71.5565 32.4035H65.2773V38.5869H71.5565V32.4035Z" fill="#333333"/>
</g>
</svg>
