<svg width="306" height="462" viewBox="0 0 306 462" fill="none" xmlns="http://www.w3.org/2000/svg">
<mask id="mask0_2289_387" style="mask-type:alpha" maskUnits="userSpaceOnUse" x="0" y="0" width="306" height="462">
<rect width="306" height="462" fill="#E44900"/>
</mask>
<g mask="url(#mask0_2289_387)">
<path fill-rule="evenodd" clip-rule="evenodd" d="M121.136 727.463H151.668V712.428H182.2V697.41H197.468V757.545H182.2V772.567H273.803V757.535H243.268V742.501H228.003V622.226H243.268V607.192H258.536V622.226H273.803V471.886H258.536V456.851H243.268V441.81H228.003V426.775H212.729V411.744H197.461V396.716H182.193V351.615H166.929V321.545H151.661V216.309H166.929V201.274H182.193V186.24H197.461V156.17H182.193V111.069H166.929V96.0347H151.661V81H121.129V96.0347H105.861V111.069H90.5934V156.17H75.3356V186.24H90.6V201.274H105.868V216.309H121.136V321.545H105.868V351.615H90.6V396.716H75.3356V411.75H60.0678V426.782H44.8V441.81H29.5355V456.845H14.2678V471.879H-1V622.22H14.2678V607.185H29.5355V622.22H44.8V742.491H29.5355V757.526H-1V772.567H90.6V757.535H75.3356V697.41H90.6V712.441H121.136V727.463Z" fill="white"/>
<path fill-rule="evenodd" clip-rule="evenodd" d="M29.5322 456.851H44.8V441.816H29.5322V456.851H14.2678V471.883H-1V622.223H14.2678V471.883H29.5322V456.851Z" fill="#E6E6E6"/>
<path d="M151.667 186.24H121.135V201.275H151.667V186.24Z" fill="#FFA831"/>
<path d="M121.135 126.101H105.868V141.136H121.135V126.101Z" fill="#333333"/>
<path fill-rule="evenodd" clip-rule="evenodd" d="M243.268 456.851H228V441.816H243.268V456.851H258.536V471.883H273.8V622.223H258.536V471.883H243.268V456.851Z" fill="#E6E6E6"/>
<path fill-rule="evenodd" clip-rule="evenodd" d="M136.39 141.138H151.658V156.17H166.926V171.205H182.19V186.239H90.6001V171.205H105.868V156.17H121.136V141.138H136.39Z" fill="#FDBD38"/>
<path d="M166.936 126.101H151.668V141.136H166.936V126.101Z" fill="#333333"/>
</g>
</svg>
