<svg width="263" height="662" viewBox="0 0 263 662" fill="none" xmlns="http://www.w3.org/2000/svg">
<path fill-rule="evenodd" clip-rule="evenodd" d="M116.89 618.696H146.11V604.307H175.331V589.933H189.943V647.486H175.331V661.863H263V647.477H233.776V633.088H219.167V517.98H233.776V503.591H248.388V517.98H263V374.096H248.388V359.708H233.776V345.312H219.167V330.924H204.549V316.538H189.937V302.155H175.325V258.991H160.716V230.213H146.104V129.497H160.716V115.108H175.325V100.719H189.937V71.9415H175.325V28.7778H160.716V14.3889H146.104V0H116.883V14.3889H102.271V28.7778H87.6593V71.9415H73.0568V100.719H87.6656V115.108H102.278V129.497H116.89V230.213H102.278V258.991H87.6656V302.155H73.0568V316.544H58.4448V330.93H43.8328V345.312H29.224V359.701H14.612V374.09H0V517.973H14.612V503.584H29.224V517.973H43.8328V633.078H29.224V647.467H0V661.863H87.6656V647.477H73.0568V589.933H87.6656V604.319H116.89V618.696Z" fill="white"/>
</svg>
