<svg width="32" height="32" viewBox="0 0 32 32" fill="none" xmlns="http://www.w3.org/2000/svg">
<g clip-path="url(#clip0_2731_354)">
<path d="M19.1618 20.8415C12.5557 17.7453 7.35137 15.6526 2.46631 14.291C6.25002 14.5855 9.64055 13.0313 8.67084 6.13563C11.0312 11.0708 15.2565 15.1297 19.1618 20.8415Z" fill="#FF8C01"/>
<path d="M20.5542 20.0297C17.7732 14.9734 15.0393 8.99299 11.1043 4.05104C14.8894 7.2986 19.0869 7.35076 22.3112 3.10052C21.4741 7.69382 20.8902 13.7768 20.5542 20.0297Z" fill="#FF8C01"/>
<path d="M22.3561 2.32407C21.4458 6.41308 19.7956 9.21631 19.6957 17.3726C17.5195 12.9475 11.363 2.35475 8.53738 1.41481C7.70005 1.13628 7.68777 1.28789 7.42995 1.86786C6.42258 4.1339 11.1857 12.0013 16.4059 18.9194C8.94027 14.831 6.17698 15.0754 1.98207 13.8717C1.20635 13.6491 0.867039 14.7429 1.54025 15.1792C10.8926 21.2231 15.3789 22.3448 20.0432 23.5926C20.1445 23.6191 21.9973 28.4403 23.2595 29.2026C25.145 30.3414 26.9698 31.2304 26.22 27.7665C25.6951 25.3415 24.6604 25.9073 22.2963 22.2068C23.3976 17.4393 24.8106 13.1367 24.0036 2.44149C23.7579 1.0411 22.5312 1.53633 22.3561 2.32407Z" fill="#F54F00"/>
</g>
<defs>
<clipPath id="clip0_2731_354">
<rect width="32" height="32"  fill="white"/>
</clipPath>
</defs>
</svg>
