<svg width="113" height="118" viewBox="0 0 113 118" fill="none" xmlns="http://www.w3.org/2000/svg">
<rect width="113" height="118" fill="#E5E5E5"/>
<g clip-path="url(#clip0_2101_322)">
<rect width="1920" height="2170" transform="translate(-334 -30)" fill="#FCFCFC"/>
<rect x="-519" y="-30" width="2227" height="148" fill="#E44900"/>
<mask id="mask0_2101_322" style="mask-type:alpha" maskUnits="userSpaceOnUse" x="-12" y="-11" width="125" height="129">
<rect x="-12" y="-11" width="125" height="129" fill="#D9D9D9"/>
</mask>
<g mask="url(#mask0_2101_322)">
<path fill-rule="evenodd" clip-rule="evenodd" d="M50.2307 265.871H62.7877V259.688H75.3447V253.511H81.6239V278.243H75.3447V284.421H113.018V278.239H100.46V272.056H94.1823V222.59H100.46V216.407H106.739V222.59H113.018V160.76H106.739V154.576H100.46V148.39H94.1823V142.207H87.9004V136.025H81.6212V129.844H75.342V111.296H69.0642V98.9292H62.785V55.6486H69.0642V49.4653H75.342V43.2819H81.6212V30.9153H75.342V12.3666H69.0642V6.18332H62.785V0H50.228V6.18332H43.9488V12.3666H37.6696V30.9153H31.3945V43.2819H37.6724V49.4653H43.9515V55.6486H50.2307V98.9292H43.9515V111.296H37.6724V129.844H31.3945V136.028H25.1154V142.21H18.8362V148.39H12.5584V154.574H6.27918V160.757H0V222.588H6.27918V216.404H12.5584V222.588H18.8362V272.052H12.5584V278.235H0V284.421H37.6724V278.239H31.3945V253.511H37.6724V259.693H50.2307V265.871Z" fill="white"/>
<path d="M62.7875 43.282H50.2305V49.4654H62.7875V43.282Z" fill="#FFA831"/>
<path d="M50.2304 18.5486H43.9512V24.732H50.2304V18.5486Z" fill="#333333"/>
<path fill-rule="evenodd" clip-rule="evenodd" d="M56.505 24.7331H62.7841V30.9151H69.0633V37.0984H75.3411V43.2818H37.6729V37.0984H43.952V30.9151H50.2312V24.7331H56.505Z" fill="#FDBD38"/>
<path d="M69.0673 18.5486H62.7881V24.732H69.0673V18.5486Z" fill="#333333"/>
</g>
</g>
<defs>
<clipPath id="clip0_2101_322">
<rect width="1920" height="2170" fill="white" transform="translate(-334 -30)"/>
</clipPath>
</defs>
</svg>
