<svg width="107" height="107" viewBox="0 0 107 107" fill="none" xmlns="http://www.w3.org/2000/svg">
<g clip-path="url(#clip0_2242_640)">
<path d="M60.2717 6.77157C60.2717 8.11086 59.8745 9.42007 59.1304 10.5337C58.3864 11.6472 57.3288 12.5152 56.0915 13.0277C54.8541 13.5402 53.4926 13.6743 52.179 13.413C50.8655 13.1517 49.6589 12.5068 48.7119 11.5598C47.7648 10.6128 47.1199 9.4062 46.8586 8.09264C46.5974 6.77909 46.7314 5.41755 47.244 4.1802C47.7565 2.94286 48.6244 1.88529 49.738 1.14122C50.8516 0.397148 52.1608 2.07387e-06 53.5001 2.07387e-06C54.3899 -0.00201338 55.2714 0.17176 56.0938 0.511349C56.9163 0.850938 57.6636 1.34966 58.2928 1.97886C58.922 2.60806 59.4207 3.35535 59.7603 4.17782C60.0999 5.0003 60.2737 5.88175 60.2717 6.77157Z" fill="white"/>
<path d="M60.2717 100.244C60.2717 101.583 59.8745 102.892 59.1304 104.006C58.3864 105.119 57.3288 105.987 56.0915 106.5C54.8541 107.012 53.4926 107.146 52.179 106.885C50.8655 106.624 49.6589 105.979 48.7119 105.032C47.7648 104.085 47.1199 102.878 46.8586 101.565C46.5974 100.251 46.7314 98.8897 47.244 97.6523C47.7565 96.415 48.6244 95.3574 49.738 94.6134C50.8516 93.8693 52.1608 93.4721 53.5001 93.4721C54.3899 93.4701 55.2714 93.6439 56.0938 93.9835C56.9163 94.3231 57.6636 94.8218 58.2928 95.451C58.922 96.0802 59.4207 96.8275 59.7603 97.6499C60.0999 98.4724 60.2737 99.3539 60.2717 100.244Z" fill="#FFBD9E"/>
<path d="M6.77159 46.7437C8.11153 46.7437 9.42135 47.1412 10.5353 47.886C11.6492 48.6307 12.5171 49.6892 13.0292 50.9275C13.5412 52.1657 13.6744 53.528 13.4119 54.842C13.1494 56.1559 12.5029 57.3625 11.5544 58.3089C10.6058 59.2553 9.39782 59.899 8.08326 60.1586C6.7687 60.4182 5.40669 60.2819 4.16962 59.767C2.93254 59.2521 1.87602 58.3818 1.13379 57.2662C0.391564 56.1507 -0.00300744 54.8399 1.72604e-05 53.5C1.49864e-05 52.6115 0.175282 51.7317 0.515772 50.9109C0.856263 50.0902 1.3553 49.3448 1.9843 48.7172C2.6133 48.0896 3.3599 47.5922 4.18137 47.2536C5.00285 46.915 5.88306 46.7417 6.77159 46.7437Z" fill="#FFEEE7"/>
<path d="M100.244 46.7437C101.584 46.7407 102.896 47.1356 104.011 47.8786C105.127 48.6215 105.998 49.6789 106.512 50.9168C107.026 52.1548 107.162 53.5176 106.901 54.8326C106.64 56.1476 105.995 57.3555 105.047 58.3035C104.099 59.2514 102.891 59.8967 101.576 60.1575C100.261 60.4183 98.8984 60.2829 97.6605 59.7685C96.4225 59.254 95.3651 58.3837 94.6222 57.2678C93.8793 56.1519 93.4843 54.8406 93.4873 53.5C93.4873 51.7081 94.1991 49.9896 95.4662 48.7226C96.7332 47.4555 98.4517 46.7437 100.244 46.7437Z" fill="#FF6116"/>
<path d="M16.4166 24.2737C17.5871 24.9341 18.5345 25.9279 19.1384 27.1284C19.7422 28.329 19.9752 29.6821 19.8077 31.0155C19.6401 32.3489 19.0796 33.6023 18.1975 34.6161C17.3153 35.63 16.1515 36.3584 14.8541 36.7087C13.5566 37.059 12.1843 37.0153 10.9118 36.5833C9.63927 36.1512 8.52407 35.3502 7.70818 34.2824C6.89228 33.2145 6.41259 31.928 6.33014 30.5867C6.2477 29.2453 6.56623 27.9098 7.24521 26.75C8.14592 25.2193 9.61078 24.1026 11.3254 23.6397C13.0401 23.1767 14.8679 23.4044 16.4166 24.2737Z" fill="#FFF4F0"/>
<path d="M97.3699 71.0174C98.535 71.6783 99.4775 72.6706 100.077 73.8684C100.677 75.0661 100.908 76.4151 100.739 77.744C100.571 79.073 100.011 80.3218 99.1311 81.3319C98.2512 82.342 97.0909 83.0677 95.7977 83.4169C94.5044 83.7661 93.1366 83.723 91.8679 83.293C90.5992 82.863 89.487 82.0656 88.6725 81.0021C87.8581 79.9385 87.3781 78.6569 87.2937 77.32C87.2093 75.9831 87.5242 74.6512 88.1984 73.4937C89.0935 71.9569 90.5585 70.8351 92.2754 70.3715C93.9924 69.9079 95.8229 70.14 97.3699 71.0174Z" fill="#FF7432"/>
<path d="M24.2735 90.5984C24.9339 89.428 25.9276 88.4806 27.1282 87.8767C28.3288 87.2728 29.6819 87.0398 31.0153 87.2074C32.3487 87.3749 33.6021 87.9355 34.6159 88.8176C35.6297 89.6997 36.3582 90.8636 36.7085 92.161C37.0588 93.4584 37.0151 94.8307 36.583 96.1033C36.151 97.3758 35.35 98.491 34.2821 99.3069C33.2143 100.123 31.9278 100.602 30.5864 100.685C29.2451 100.767 27.9095 100.449 26.7498 99.7699C25.216 98.8719 24.0968 97.407 23.6335 95.6912C23.1703 93.9754 23.4001 92.1463 24.2735 90.5984Z" fill="#FFD6C2"/>
<path d="M71.0172 9.64528C71.6781 8.48009 72.6704 7.53766 73.8682 6.93773C75.0659 6.3378 76.4149 6.10744 77.7438 6.27594C79.0727 6.44444 80.3216 7.00417 81.3317 7.88404C82.3418 8.7639 83.0675 9.92417 83.4167 11.2174C83.7659 12.5107 83.7228 13.8786 83.2928 15.1472C82.8628 16.4159 82.0654 17.5282 81.0018 18.3426C79.9383 19.1571 78.6567 19.637 77.3198 19.7214C75.9829 19.8058 74.651 19.4909 73.4935 18.8167C71.9567 17.9216 70.8349 16.4567 70.3713 14.7397C69.9077 13.0227 70.1398 11.1922 71.0172 9.64528Z" fill="#E44900"/>
<path d="M9.61501 71.0174C10.7725 70.3432 12.1044 70.0283 13.4413 70.1127C14.7782 70.1971 16.0598 70.6771 17.1233 71.4915C18.1869 72.306 18.9843 73.4182 19.4143 74.6869C19.8443 75.9556 19.8874 77.3234 19.5382 78.6167C19.189 79.9099 18.4633 81.0702 17.4532 81.9501C16.4431 82.8299 15.1943 83.3897 13.8653 83.5582C12.5364 83.7267 11.1874 83.4963 9.98968 82.8964C8.79196 82.2965 7.79961 81.354 7.13872 80.1889C6.26535 78.641 6.0355 76.8119 6.49876 75.096C6.96203 73.3802 8.08128 71.9154 9.61501 71.0174Z" fill="#FFE7DC"/>
<path d="M90.6287 24.2737C91.7884 23.5947 93.124 23.2762 94.4653 23.3586C95.8067 23.4411 97.0932 23.9208 98.161 24.7367C99.2289 25.5526 100.03 26.6678 100.462 27.9403C100.894 29.2128 100.938 30.5851 100.587 31.8826C100.237 33.18 99.5086 34.3439 98.4948 35.226C97.481 36.1081 96.2276 36.6686 94.8942 36.8362C93.5608 37.0038 92.2077 36.7708 91.0071 36.1669C89.8065 35.563 88.8128 34.6156 88.1524 33.4451C87.279 31.8973 87.0492 30.0681 87.5124 28.3523C87.9757 26.6365 89.0949 25.1716 90.6287 24.2737Z" fill="#F35003"/>
<path d="M71.0177 97.3547C70.3435 96.1972 70.0286 94.8654 70.113 93.5285C70.1975 92.1916 70.6774 90.9099 71.4918 89.8464C72.3063 88.7828 73.4185 87.9854 74.6872 87.5555C75.9559 87.1255 77.3238 87.0823 78.617 87.4315C79.9103 87.7807 81.0706 88.5064 81.9504 89.5165C82.8303 90.5266 83.39 91.7755 83.5585 93.1044C83.727 94.4333 83.4967 95.7823 82.8967 96.98C82.2968 98.1778 81.3544 99.1701 80.1892 99.831C78.6422 100.708 76.8117 100.941 75.0948 100.477C73.3778 100.013 71.9128 98.8915 71.0177 97.3547Z" fill="#F9996C"/>
<path d="M24.2734 16.4169C23.5921 15.2582 23.2709 13.9231 23.3509 12.5813C23.4308 11.2396 23.9083 9.95198 24.7224 8.88249C25.5366 7.81299 26.6506 7.00999 27.9227 6.57573C29.1947 6.14146 30.5672 6.09558 31.8654 6.44393C33.1636 6.79228 34.3288 7.51911 35.2125 8.53184C36.0963 9.54458 36.6586 10.7974 36.828 12.1308C36.9974 13.4642 36.7661 14.8179 36.1637 16.0194C35.5612 17.2209 34.6147 18.216 33.4449 18.8779C31.898 19.7485 30.0715 19.9785 28.3571 19.5184C26.6426 19.0584 25.1767 17.945 24.2734 16.4169Z" fill="#FFFAFA"/>
</g>
<defs>
<clipPath id="clip0_2242_640">
<rect width="107" height="107" fill="white"/>
</clipPath>
</defs>
</svg>
