<svg width="28" height="28" viewBox="0 0 28 28" fill="none" xmlns="http://www.w3.org/2000/svg">
<circle cx="14" cy="14" r="14" fill="white"/>
<path d="M15.3792 10.7666L14.8668 10.2526L14.8668 10.9784L14.8668 19.8334C14.8668 20.0632 14.7755 20.2837 14.6129 20.4462C14.4504 20.6087 14.23 20.7 14.0001 20.7C13.7703 20.7 13.5498 20.6087 13.3873 20.4462C13.2248 20.2837 13.1334 20.0632 13.1334 19.8334L13.1334 10.9784L13.1334 10.2526L12.621 10.7666L8.78265 14.6166L8.78211 14.6171C8.70154 14.6983 8.60569 14.7628 8.50008 14.8068C8.39447 14.8508 8.28119 14.8735 8.16678 14.8735C8.05237 14.8735 7.93909 14.8508 7.83348 14.8068C7.72787 14.7628 7.63201 14.6983 7.55144 14.6171L7.54971 14.6154C7.46847 14.5348 7.404 14.439 7.36 14.3333C7.316 14.2277 7.29335 14.1145 7.29335 14C7.29335 13.8856 7.316 13.7724 7.36 13.6667C7.404 13.5611 7.46847 13.4653 7.54971 13.3847L7.55058 13.3838L13.3814 7.55299C13.4634 7.47509 13.5598 7.41397 13.6652 7.37309L13.6652 7.37314L13.6708 7.37087C13.8818 7.28419 14.1184 7.28419 14.3294 7.37087L14.3294 7.37093L14.335 7.37309C14.4404 7.41397 14.5368 7.47509 14.6188 7.55299L20.4496 13.3838C20.6131 13.5473 20.7049 13.7689 20.7049 14C20.7049 14.2312 20.6131 14.4528 20.4496 14.6162C20.2862 14.7797 20.0646 14.8715 19.8334 14.8715C19.6024 14.8715 19.3808 14.7797 19.2174 14.6164C19.2173 14.6163 19.2173 14.6163 19.2172 14.6162L15.3792 10.7666Z" fill="black" stroke="white" stroke-width="0.6"/>
</svg>
