<svg width="566" height="614" viewBox="0 0 566 614" fill="none" xmlns="http://www.w3.org/2000/svg">
<ellipse cx="282.905" cy="306.546" rx="181" ry="249" transform="rotate(-30.7692 282.905 306.546)" fill="#E44900"/>
<mask id="mask0_2763_358" style="mask-type:alpha" maskUnits="userSpaceOnUse" x="81" y="73" width="403" height="467">
<ellipse cx="282.905" cy="306.546" rx="181" ry="249" transform="rotate(-30.7692 282.905 306.546)" fill="#E44900"/>
</mask>
<g mask="url(#mask0_2763_358)">
<path fill-rule="evenodd" clip-rule="evenodd" d="M280.136 774.463H310.668V759.428H341.2V744.41H356.468V804.545H341.2V819.567H432.803V804.536H402.268V789.501H387.003V669.227H402.268V654.192H417.536V669.227H432.803V518.886H417.536V503.851H402.268V488.81H387.003V473.776H371.729V458.744H356.461V443.716H341.193V398.615H325.929V368.546H310.661V263.309H325.929V248.275H341.193V233.24H356.461V203.17H341.193V158.07H325.929V143.035H310.661V128H280.129V143.035H264.861V158.07H249.593V203.17H234.336V233.24H249.6V248.275H264.868V263.309H280.136V368.546H264.868V398.615H249.6V443.716H234.336V458.751H219.068V473.782H203.8V488.81H188.536V503.845H173.268V518.88H158V669.22H173.268V654.185H188.536V669.22H203.8V789.491H188.536V804.526H158V819.567H249.6V804.536H234.336V744.41H249.6V759.441H280.136V774.463Z" fill="white"/>
<path fill-rule="evenodd" clip-rule="evenodd" d="M188.532 503.851H203.8V488.816H188.532V503.851H173.268V518.883H158V669.223H173.268V518.883H188.532V503.851Z" fill="#E6E6E6"/>
<path d="M310.667 233.24H280.135V248.275H310.667V233.24Z" fill="#FFA831"/>
<path d="M280.135 173.101H264.867V188.136H280.135V173.101Z" fill="#333333"/>
<path fill-rule="evenodd" clip-rule="evenodd" d="M402.268 503.851H387V488.816H402.268V503.851H417.536V518.883H432.8V669.223H417.536V518.883H402.268V503.851Z" fill="#E6E6E6"/>
<path fill-rule="evenodd" clip-rule="evenodd" d="M295.39 188.139H310.658V203.17H325.926V218.205H341.19V233.24H249.6V218.205H264.868V203.17H280.136V188.139H295.39Z" fill="#FDBD38"/>
<path d="M325.936 173.101H310.668V188.136H325.936V173.101Z" fill="#333333"/>
</g>
</svg>
