<svg width="38" height="38" viewBox="0 0 38 38" fill="none" xmlns="http://www.w3.org/2000/svg">
<path d="M37.2533 17.8284C37.1066 17.4499 36.8865 17.1041 36.6058 16.8109L21.1892 1.39421C20.9017 1.10672 20.5604 0.878679 20.1848 0.723093C19.8092 0.567507 19.4066 0.487427 19 0.487427C18.1789 0.487427 17.3914 0.813606 16.8108 1.39421C16.5233 1.68169 16.2953 2.02299 16.1397 2.39861C15.9841 2.77423 15.9041 3.17681 15.9041 3.58338C15.9041 4.40447 16.2302 5.19194 16.8108 5.77254L26.9858 15.9167H3.58333C2.76558 15.9167 1.98133 16.2416 1.40309 16.8198C0.824851 17.398 0.5 18.1823 0.5 19C0.5 19.8178 0.824851 20.6021 1.40309 21.1803C1.98133 21.7585 2.76558 22.0834 3.58333 22.0834H26.9858L16.8108 32.2275C16.5218 32.5142 16.2925 32.8552 16.1359 33.2309C15.9794 33.6067 15.8988 34.0097 15.8988 34.4167C15.8988 34.8237 15.9794 35.2268 16.1359 35.6025C16.2925 35.9782 16.5218 36.3192 16.8108 36.6059C17.0975 36.8949 17.4385 37.1243 17.8142 37.2808C18.19 37.4373 18.593 37.5179 19 37.5179C19.407 37.5179 19.81 37.4373 20.1858 37.2808C20.5615 37.1243 20.9025 36.8949 21.1892 36.6059L36.6058 21.1892C36.8865 20.896 37.1066 20.5502 37.2533 20.1717C37.5617 19.421 37.5617 18.5791 37.2533 17.8284Z" fill="white"/>
</svg>
