<svg width="34" height="34" viewBox="0 0 34 34" fill="none" xmlns="http://www.w3.org/2000/svg">
<rect width="34" height="34" fill="#E5E5E5"/>
<g clip-path="url(#clip0_2101_322)">
<rect width="1920" height="2170" transform="translate(-745 -628)" fill="#FCFCFC"/>
<g filter="url(#filter0_d_2101_322)">
<rect x="-32" y="-188" width="839" height="409" rx="8" fill="white"/>
</g>
<circle cx="17" cy="17" r="17" fill="#A2A2A2"/>
<path fill-rule="evenodd" clip-rule="evenodd" d="M6.7762 16.2793C12.2992 13.8878 15.9759 12.2987 17.8222 11.5277C23.0769 9.34072 24.1815 8.96311 24.8916 8.94737C25.0494 8.94737 25.3965 8.97884 25.6332 9.16765C25.8226 9.32498 25.8699 9.52952 25.9015 9.68686C25.9331 9.8442 25.9646 10.1746 25.9331 10.4264C25.649 13.4158 24.4182 20.6691 23.787 24.0046C23.5187 25.4207 22.998 25.8927 22.493 25.9399C21.3884 26.0343 20.5521 25.2161 19.4948 24.5239C17.8222 23.4382 16.8912 22.7617 15.2658 21.6918C13.388 20.4645 14.6031 19.788 15.6761 18.6866C15.9601 18.4034 20.8046 13.9979 20.8993 13.6046C20.915 13.5574 20.915 13.3686 20.8046 13.2742C20.6941 13.1798 20.5363 13.2112 20.4101 13.2427C20.2365 13.2742 17.5855 15.0364 12.4254 18.5135C11.668 19.0328 10.9894 19.2845 10.374 19.2688C9.69549 19.253 8.40154 18.8911 7.42318 18.5765C6.23968 18.1989 5.29289 17.9943 5.37179 17.3335C5.41913 16.9874 5.89252 16.6412 6.7762 16.2793Z" fill="white"/>
</g>
<defs>
<filter id="filter0_d_2101_322" x="-47" y="-193" width="869" height="439" filterUnits="userSpaceOnUse" color-interpolation-filters="sRGB">
<feFlood flood-opacity="0" result="BackgroundImageFix"/>
<feColorMatrix in="SourceAlpha" type="matrix" values="0 0 0 0 0 0 0 0 0 0 0 0 0 0 0 0 0 0 127 0" result="hardAlpha"/>
<feOffset dy="10"/>
<feGaussianBlur stdDeviation="7.5"/>
<feComposite in2="hardAlpha" operator="out"/>
<feColorMatrix type="matrix" values="0 0 0 0 0 0 0 0 0 0 0 0 0 0 0 0 0 0 0.06 0"/>
<feBlend mode="normal" in2="BackgroundImageFix" result="effect1_dropShadow_2101_322"/>
<feBlend mode="normal" in="SourceGraphic" in2="effect1_dropShadow_2101_322" result="shape"/>
</filter>
<clipPath id="clip0_2101_322">
<rect width="1920" height="2170" fill="white" transform="translate(-745 -628)"/>
</clipPath>
</defs>
</svg>
