<svg width="85" height="85" viewBox="0 0 85 85" fill="none" xmlns="http://www.w3.org/2000/svg">
<circle cx="42.5" cy="42.5" r="42.5" fill="#D9D9D9" fill-opacity="0.62"/>
<path d="M65.5525 54.7762L60.2912 49.3879C59.1595 48.3121 57.732 47.5993 56.1921 47.3412C54.6522 47.083 53.0702 47.2912 51.6496 47.9391L49.3621 45.6516C52.0576 42.0499 53.2887 37.5607 52.8074 33.0877C52.3261 28.6148 50.1682 24.4903 46.7681 21.5444C43.368 18.5986 38.9782 17.0501 34.4823 17.2108C29.9864 17.3715 25.7183 19.2294 22.5372 22.4105C19.3561 25.5916 17.4982 29.8597 17.3375 34.3556C17.1768 38.8515 18.7253 43.2413 21.6711 46.6414C24.617 50.0415 28.7415 52.1994 33.2144 52.6807C37.6874 53.162 42.1766 51.9309 45.7783 49.2354L48.0404 51.4974C47.3163 52.9198 47.0567 54.5336 47.2984 56.1114C47.5401 57.6891 48.2708 59.1512 49.3875 60.2916L54.7758 65.6799C56.2055 67.1079 58.1435 67.9099 60.1642 67.9099C62.1848 67.9099 64.1228 67.1079 65.5525 65.6799C66.2787 64.9698 66.8558 64.1217 67.2498 63.1855C67.6437 62.2493 67.8467 61.2438 67.8467 60.2281C67.8467 59.2123 67.6437 58.2068 67.2498 57.2706C66.8558 56.3344 66.2787 55.4863 65.5525 54.7762V54.7762ZM43.9992 43.9995C42.2206 45.7736 39.9561 46.9808 37.4918 47.4685C35.0275 47.9563 32.474 47.7027 30.1537 46.7399C27.8334 45.7771 25.8505 44.1482 24.4555 42.0591C23.0606 39.9699 22.316 37.5141 22.316 35.002C22.316 32.4899 23.0606 30.0342 24.4555 27.945C25.8505 25.8558 27.8334 24.2269 30.1537 23.2641C32.474 22.3013 35.0275 22.0478 37.4918 22.5355C39.9561 23.0233 42.2206 24.2304 43.9992 26.0045C45.1826 27.185 46.1216 28.5874 46.7623 30.1313C47.4029 31.6753 47.7327 33.3304 47.7327 35.002C47.7327 36.6736 47.4029 38.3288 46.7623 39.8727C46.1216 41.4167 45.1826 42.819 43.9992 43.9995V43.9995ZM61.9687 61.9691C61.7325 62.2073 61.4513 62.3964 61.1416 62.5255C60.8319 62.6545 60.4997 62.7209 60.1642 62.7209C59.8286 62.7209 59.4964 62.6545 59.1867 62.5255C58.877 62.3964 58.5959 62.2073 58.3596 61.9691L52.9712 56.5808C52.733 56.3445 52.5439 56.0634 52.4149 55.7537C52.2859 55.4439 52.2194 55.1117 52.2194 54.7762C52.2194 54.4407 52.2859 54.1085 52.4149 53.7987C52.5439 53.489 52.733 53.2079 52.9712 52.9716C53.2075 52.7334 53.4886 52.5443 53.7984 52.4153C54.1081 52.2862 54.4403 52.2198 54.7758 52.2198C55.1114 52.2198 55.4436 52.2862 55.7533 52.4153C56.063 52.5443 56.3441 52.7334 56.5804 52.9716L61.9687 58.3599C62.207 58.5962 62.396 58.8773 62.5251 59.1871C62.6541 59.4968 62.7206 59.829 62.7206 60.1645C62.7206 60.5001 62.6541 60.8323 62.5251 61.142C62.396 61.4517 62.207 61.7328 61.9687 61.9691V61.9691Z" fill="#FFFDFD"/>
</svg>
